<svg version="1" xmlns="http://www.w3.org/2000/svg" width="933.333" height="933.333" viewBox="0 0 700.000000 700.000000"><path d="M345.9 142.4c-.2.2-5.3.7-11.4 1.1-6 .3-12.1.8-13.5 1-1.4.2-6.5.7-11.5 1-4.9.3-10.3.8-12 1-1.6.2-6.6.7-11 1-4.4.3-10.2.8-13 1-9.1.8-15.9 1.4-23 2-3.8.3-9.5.8-12.5 1.1-3 .3-8.4.7-12 1-3.6.3-8.5.7-11 .9-2.5.2-7.9.7-12 1-4.1.4-9.5.8-12 1-2.5.2-7.9.7-12 1-4.1.3-9.1.8-11 1-1.9.3-7.5.7-12.5 1-4.9.3-10.6.8-12.5 1-1.9.2-6.9.7-11 1-8.3.7-13.1 1.1-23.5 2-3.9.3-8.8.8-11 1-2.2.1-8 .6-13 1-4.9.5-10.4.9-12.2.9-3.1.2-5.7 1.2-3 1.3 1 0 8.8 1.2 17.7 2.8.8.1 3.5.6 6 1s5.4.9 6.5 1.1c2.8.6 14.4 2.5 18 3 1.7.3 5 .9 7.5 1.4 4.5.9 8 1.5 15.5 2.5 2.2.4 4.7.8 5.5 1 1.6.5 1.8.5 20.5 3.5 7.2 1.1 15 2.5 17.5 3s6.1 1.2 8 1.5c3.4.5 6.6 1 12 2 1.4.3 4.8.7 7.5 1.1 2.8.3 5.2.8 5.5.9.3.2 2.6.6 5 1 2.5.3 7.9 1.2 12 2 6.1 1.2 47.6 8.2 59.5 10.1 1.7.2 8 1.3 14 2.4 6.1 1 13 2.2 15.5 2.5 2.5.3 5.2.8 6 1 .8.2 3.1.7 5 1 1.9.3 4.2.8 5 1 5.7 1.5 12.7 1.4 23.1-.4 6.3-1.1 12.8-2.3 14.4-2.5 12.3-2 22.3-3.6 24.1-4 1.2-.2 3.7-.7 5.5-1 6.9-1.1 45.5-7.6 47.9-8.1 6.5-1.2 7.7-1.5 11-1.9 1.9-.3 4.6-.8 6-1 1.4-.3 4.3-.7 6.5-1.1 2.2-.3 9-1.4 15-2.5 6.1-1.1 12.6-2.2 14.5-2.5 1.9-.3 6-1 9-1.5s7.1-1.2 9-1.5c1.9-.3 9.9-1.7 17.8-3.1 7.8-1.4 15.6-2.7 17.2-3 1.7-.2 4.4-.6 6-.9 1.7-.3 4.2-.7 5.8-.9 3.2-.5 48.9-8.4 52.3-9 1.3-.3 3.5-.5 4.8-.5 1.3-.1 2.1-.4 1.8-.8-.8-.7-1.6-.8-14.2-1.8-4.9-.3-10.6-.8-12.5-1-1.9-.2-7.3-.6-12-1-4.7-.3-10.3-.8-12.5-1-2.2-.2-7.4-.7-11.5-1-4.1-.3-9.5-.7-12-1-4.2-.4-11.5-1-23.5-2-9.4-.7-19.5-1.6-23.2-2-2.1-.2-7.4-.6-11.8-1-12.5-.9-28.2-2.3-35.5-3-2.5-.2-7.9-.7-12-1-4.1-.3-9.5-.8-12-1-9.4-.8-16.8-1.4-24-2-4.1-.3-9.3-.8-11.5-1-4.9-.5-14.7-1.3-23.8-2-3.8-.3-9.4-.8-12.4-1-9.3-.9-20.1-1.4-20.4-1.1zm17.6 16.1c6.1.4 12.6.8 14.5 1 1.9.2 7.6.6 12.5 1 5 .3 11.5.8 14.5 1 3 .2 9.1.7 13.5 1 4.4.3 10.5.8 13.5 1 3 .3 8.7.7 12.5 1 6.6.5 14.2 1 26 2 24.5 1.9 30.1 2.3 33.9 2.4 3.9.1 3 .8-1.9 1.4-2.2.3-9.4 1.3-16 2.2-12.3 1.7-13.8 1.9-21.5 3-2.5.4-5.6.8-7 1-10.2 1.4-18.9 2.7-21 3-1.4.3-4.7.7-7.5 1-2.7.3-7.9 1-11.5 1.6-3.6.5-7.6 1.2-9 1.4-1.4.2-4.7.6-7.5 1-4.2.5-13.3 1.8-27.5 3.9-1.4.2-4.5.7-7 1-2.5.4-6.3.9-8.5 1.3-5.2.8-10.9.8-16.5 0-8.4-1.1-26.5-3.7-28.5-4.1-1.1-.2-4.7-.7-8-1.1-3.2-.4-6.8-.9-7.9-1.1-1.1-.2-4-.6-6.5-.9-2.5-.3-5.5-.7-6.6-.9-1.2-.2-4.8-.8-8-1.2-3.3-.4-6.2-.8-6.5-.9-.3-.1-3.4-.5-7-.9-3.6-.5-7.4-1-8.5-1.2-1-.2-3.7-.6-6-.9-4.9-.7-30.9-4.4-35-5-1.6-.3-6.8-.9-11.5-1.5-9.4-1.2-11.3-2-5.4-2.1 2.1 0 4.7-.2 5.7-.4.9-.2 6.3-.6 12-1 5.6-.3 12.5-.8 15.2-1 8-.7 17.4-1.4 25.5-2 4.1-.3 10-.7 13-1 3-.2 9.3-.7 14-1 4.7-.4 10.5-.8 13-1 2.5-.2 9-.6 14.5-1s11.6-.8 13.5-1c1.9-.2 7.8-.6 13-1s9.6-.8 9.8-1c.1-.1 1.7-.1 3.5 0 1.7.1 8.2.6 14.2 1zM654 202.6c-3.6.7-8.3 1.5-10.5 1.8-2.2.4-5.1.8-6.5 1.1-3.4.6-44.6 7.4-49 8.1-1.9.3-7.5 1.2-12.5 2-4.9.9-10.1 1.7-11.5 1.9-1.4.2-3.8.6-5.5.9-3.1.5-26.9 4.4-31.7 5.2-2.7.4-5.3.8-11.3 1.8-2.6.5-25.9 4.3-37 6.1-2.2.4-4.9.8-6 1-1.1.1-4.9.8-8.5 1.4-3.6.6-8.2 1.3-10.4 1.7-2.1.3-4.8.8-6 1-2.4.4-3.2.6-21.1 3.4-18.3 2.9-18.8 3-20.5 3.5-.8.2-3.5.6-6 .9-2.5.3-5.5.8-6.6 1-1.2.2-3.9.7-6 1.1-7.9 1.2-10 1.5-12.5 2.1l-2.6.5.3 176.5c.1 97.1.4 176.7.6 176.9.2.2 2.4-.9 4.8-2.4 4.4-2.8 55.6-33.3 59.5-35.5 3.2-1.8 71.7-42.6 75.5-45 1.9-1.2 4.2-2.6 5-3 .8-.4 2.4-1.2 3.5-1.9s14.4-8.6 29.5-17.6c15.1-9 34-20.3 42-25.1 8-4.8 25.8-15.3 39.5-23.5 13.8-8.1 25.6-15.3 26.2-15.9 1-.9 1.4-14.7 1.9-58.1.3-31.4.7-71.4.9-89 .7-69.8.7-82.7-.1-83.4-.5-.4-3.8-.2-7.4.5zm-31.2 128.5l-.3 79.1-25.5 14c-14 7.7-28.4 15.5-32 17.5-3.6 1.9-10.3 5.6-15 8.1-4.7 2.5-8.9 4.8-9.5 5.2-.5.4-5 2.9-10 5.5-4.9 2.7-14.4 7.8-21 11.4-6.6 3.7-13.6 7.4-15.5 8.4-1.9 1-4.8 2.6-6.5 3.6-1.6.9-6.6 3.7-11 6.1-4.4 2.3-10.5 5.6-13.5 7.3-3 1.6-8.9 4.8-13 7s-7.9 4.3-8.5 4.7c-.5.4-5.5 3.1-11 6s-10.6 5.7-11.2 6.3c-.7.5-1.4.6-1.4.1-.3-2.1.7-206.6 1-226l.1-4.1 5.3-1.1c4.7-1 39.7-7.8 45.7-8.9 1.4-.2 6.8-1.3 12-2.3 5.2-1.1 11.1-2.2 13-2.5 1.9-.3 6.7-1.2 10.5-2 7.3-1.5 25.8-5 31-5.9 2.5-.5 9.4-1.8 26-5.2 1.1-.2 4.7-.9 8-1.5 10.9-1.9 41.9-8 45.5-8.8 1.9-.5 4.3-.9 5.3-1 1.6-.1 1.7 4.1 1.5 79zM37.6 210.2c.1 4.5.5 38.9.9 76.3C39.8 407.4 39.9 417.4 40 425l.1 7.5L59.6 444c10.7 6.3 20.9 12.3 22.7 13.4 2.9 1.7 18.2 10.8 110.7 65.9 15.7 9.3 46.3 27.5 68 40.5 21.7 12.9 45.4 27 52.5 31.2 7.2 4.3 13.1 7.7 13.3 7.5.2-.1.4-79.7.6-176.9.2-146.3 0-176.6-1.1-176.7-.7-.1-1.6-.2-2-.3-.5-.2-3-.6-5.8-1-7.6-1.2-21.1-3.5-23.7-4-1.3-.3-4.1-.8-6.3-1.1-4.6-.6-7-.9-22-3.5-6-1-12.6-2.1-14.5-2.4-1.9-.3-16.1-2.6-31.5-5.1-15.4-2.5-29.3-4.8-31-5.1-3.5-.5-9.1-1.5-12-2-2.6-.5-12.9-2.1-18-2.9-2.3-.3-5.2-.8-6.5-1-1.4-.3-8.1-1.4-15-2.5-6.9-1.2-13.6-2.3-15-2.5-5.6-.9-33.7-5.6-36-6-4.3-.7-15.3-2.4-19.5-3-2.2-.4-4.7-.8-5.5-1-.8-.2-3.3-.7-5.5-1-2.3-.3-5-.7-6.1-.9-1.1-.2-4.4-.7-7.4-1.1l-5.5-.7.1 8.4zM93 254.9c13.1 2.6 13.2 2.7 20.5 4 3.3.6 6.9 1.3 8 1.5 1.1.2 11.7 2.3 23.5 4.5 11.8 2.3 23.8 4.6 26.5 5.1 2.8.6 6.1 1.2 7.5 1.5 1.4.3 4.8.9 7.5 1.5 2.8.5 6.1 1.2 7.5 1.4 1.4.2 7.2 1.4 13 2.5s11.6 2.2 13 2.5c2.6.4 46.6 8.9 55.8 10.7 3.7.8 5.2 1.5 5.3 2.7 0 .9.2 37.7.5 81.7s.6 95.2.7 113.7c.2 18.6.2 33.8.2 33.8-.1 0-18.6-10-41.1-22.3-52.2-28.5-64.2-35-73.4-40-4.1-2.2-7.9-4.3-8.5-4.7-.5-.4-5.3-3-10.5-5.8s-23.4-12.7-40.5-22l-31-16.9-.3-79.2-.2-79.2 2.7.5c1.6.2 7.5 1.4 13.3 2.5z"/></svg>