<svg version="1" xmlns="http://www.w3.org/2000/svg" width="597.333" height="597.333" viewBox="0 0 448.000000 448.000000"><path d="M200.5 92.6c-97.7 8-150.7 12.5-154 13.1l-4 .7 6.5 1.2c3.6.7 44.4 7.7 90.7 15.5l84.3 14.1 90.7-15.2c79.4-13.3 94.9-16 90.7-16-.5 0-5.6-.4-11.4-1-37.7-3.5-166.4-14-171-13.9-3 .1-13.1.8-22.5 1.5zM391 133.6c-16.8 3-32.2 5.7-34.2 6-2.1.3-11.3 1.8-20.5 3.5-9.3 1.6-18.4 3.2-20.3 3.4-1.9.3-20.1 3.4-40.5 6.8l-37 6.3-.3 113.2-.2 113.3 2.2-1.2c3.9-2.1 149.9-87.3 166-96.9 10.1-6 15.9-10.1 16.3-11.4.9-3.1 1.9-138.3 1.1-143.9-.4-2.6-1-4.6-1.4-4.6-.4.1-14.4 2.6-31.2 5.5zM24.3 201.7c.4 40.1 1 73.7 1.3 74.9.6 2.4 7.6 6.6 111.4 67.1l72.5 42.3.3-113.2c.1-62.2.1-113.2 0-113.4-.3-.2-114.8-18.9-121.8-19.8-1.9-.3-11.4-1.9-21-3.5-9.6-1.7-19.3-3.2-21.5-3.5-2.2-.3-7.8-1.2-12.5-2-4.7-.9-8.7-1.6-8.9-1.6-.2 0-.1 32.7.2 72.7z"/></svg>