<?xml version="1.0" standalone="no"?>
<!DOCTYPE svg PUBLIC "-//W3C//DTD SVG 20010904//EN"
 "http://www.w3.org/TR/2001/REC-SVG-20010904/DTD/svg10.dtd">
<svg version="1.0" xmlns="http://www.w3.org/2000/svg"
 width="512.000000pt" height="512.000000pt" viewBox="0 0 512.000000 512.000000"
 preserveAspectRatio="xMidYMid meet">
<metadata>
Created by potrace 1.11, written by Peter Selinger 2001-2013
</metadata>
<g transform="translate(0.000000,512.000000) scale(0.100000,-0.100000)"
fill="#000000" stroke="none">
<path d="M2325 4054 c-977 -80 -1507 -125 -1540 -131 l-40 -7 65 -12 c36 -7
444 -77 907 -155 l843 -141 907 152 c794 133 949 160 907 160 -5 0 -56 4 -114
10 -377 35 -1664 140 -1710 139 -30 -1 -131 -8 -225 -15z"/>
<path d="M563 2998 c4 -420 9 -772 13 -784 3 -13 60 -53 162 -114 245 -146
1712 -1001 1728 -1007 12 -4 14 160 14 1173 l0 1179 -947 158 c-522 86 -954
157 -962 157 -12 0 -13 -109 -8 -762z"/>
<path d="M3573 3602 l-933 -157 0 -1178 c0 -1014 2 -1178 14 -1174 16 6 1483
861 1728 1007 101 61 159 101 163 114 9 33 19 1319 10 1439 -7 101 -8 107 -28
106 -12 -1 -442 -71 -954 -157z"/>
</g>
</svg>
